<svg width="466" height="94" viewBox="0 0 466 94" fill="none" xmlns="http://www.w3.org/2000/svg">
<path d="M96.6226 64.9134V83.356H87.0734V70.5785L76.1914 71.8406C73.8012 72.1154 72.7496 72.8951 72.7496 74.331C72.7496 76.4344 74.746 77.3206 79.0258 77.3206C81.6352 77.3206 84.5258 76.9336 87.079 76.2661L82.1357 83.2438C80.1393 83.6869 78.1934 83.9056 76.1407 83.9056C67.4801 83.9056 62.5368 80.4729 62.5368 74.3815C62.5368 69.008 66.4228 66.1867 75.2522 65.1882L86.9159 63.8365C86.2861 60.4542 83.7273 58.9846 78.6377 58.9846C73.8631 58.9846 68.588 60.2018 63.8696 62.4735L65.3712 54.2225C69.7577 52.394 74.7573 51.4517 79.8075 51.4517C90.9145 51.4517 96.6339 56.0511 96.6339 64.9078L96.6226 64.9134ZM10.719 41.8209L0.28125 83.356H10.719L15.8986 62.4847L24.8798 73.2204H35.7618L44.743 62.4847L49.9226 83.356H60.3603L49.9226 41.8153L30.318 65.0368L10.7134 41.8153L10.719 41.8209ZM49.9226 0.280273L30.318 23.5018L10.719 0.280273L0.28125 41.8209H10.719L15.8986 20.9496L24.8798 31.6854H35.7618L44.743 20.9496L49.9226 41.8209H60.3603L49.9226 0.280273ZM121.722 64.5264L113.28 63.3092C111.171 62.9783 110.339 62.3108 110.339 61.1497C110.339 59.2651 112.392 58.4349 116.615 58.4349C121.502 58.4349 125.889 59.4333 130.5 61.5928L129.336 53.4541C125.613 52.1248 121.339 51.4629 116.896 51.4629C106.515 51.4629 100.846 55.0639 100.846 61.5424C100.846 66.5849 103.956 69.4062 110.564 70.4047L119.118 71.6779C121.283 72.0088 122.172 72.839 122.172 74.1683C122.172 76.053 120.175 76.9392 116.12 76.9392C110.789 76.9392 105.013 75.666 100.295 73.3943L101.24 81.533C105.295 83.0306 110.57 83.9169 115.513 83.9169C126.176 83.9169 131.726 80.2037 131.726 73.613C131.726 68.3517 128.616 65.5248 121.733 64.532L121.722 64.5264ZM135.438 45.5285V83.356H144.987V45.5285H135.438ZM156.145 66.3549L169.423 52.007H157.54L144.987 66.8485L158.372 83.3504H170.424L156.145 66.3493V66.3549ZM134.105 32.8464C134.105 38.9379 139.049 42.3706 147.709 42.3706C149.762 42.3706 151.708 42.1462 153.704 41.7087L158.648 34.7311C156.094 35.3929 153.204 35.7856 150.594 35.7856C146.32 35.7856 144.318 34.8994 144.318 32.796C144.318 31.3544 145.375 30.5804 147.76 30.3055L158.642 29.0435V41.8209H168.191V23.3784C168.191 14.5161 162.472 9.92224 151.365 9.92224C146.309 9.92224 141.315 10.8646 136.928 12.6931L135.427 20.944C140.145 18.6724 145.42 17.4552 150.195 17.4552C155.285 17.4552 157.843 18.9248 158.473 22.307L146.809 23.6588C137.98 24.6572 134.094 27.4786 134.094 32.852L134.105 32.8464ZM107.398 30.8552C107.398 38.5004 111.841 42.3762 120.614 42.3762C124.112 42.3762 127.002 41.8209 129.775 40.5477L130.995 32.1846C128.33 33.7888 125.608 34.6189 122.886 34.6189C118.775 34.6189 116.941 32.9586 116.941 29.2454V18.1675H131.434V10.4719H116.941V3.93738L98.7822 13.5176V18.1675H107.387V30.8496L107.398 30.8552ZM98.0117 27.3664V29.251H72.2041C73.3682 33.0876 76.8268 34.8433 82.968 34.8433C87.8551 34.8433 92.4104 33.8448 96.4595 31.9097L95.2954 39.998C91.5725 41.5461 86.8541 42.3818 82.0232 42.3818C69.1953 42.3818 62.1993 36.7335 62.1993 26.267C62.1993 15.8005 69.3078 9.92785 80.3023 9.92785C91.2969 9.92785 98.0173 16.2997 98.0173 27.372L98.0117 27.3664ZM72.0804 22.8231H88.4006C87.5402 19.1491 84.7114 17.2308 80.1899 17.2308C75.6683 17.2308 72.9858 19.0986 72.0804 22.8231Z" fill="white"/>
<path d="M448.68 84.2879V55.7446H454.423V84.2879H448.68ZM454.423 61.711L458.299 56.2219C459.416 55.9674 460.532 55.7924 461.649 55.6969C462.766 55.6014 464.186 55.5537 465.908 55.5537V60.6132C463.898 60.5814 461.968 60.661 460.118 60.8519C458.267 61.011 456.369 61.2974 454.423 61.711Z" fill="white"/>
<path d="M414.802 70.1582C414.802 67.2307 415.408 64.6692 416.62 62.4735C417.865 60.2461 419.571 58.5277 421.741 57.3185C423.91 56.0775 426.415 55.457 429.254 55.457C432.285 55.457 434.838 56.0457 436.912 57.2231C438.985 58.4005 440.565 60.1029 441.649 62.3303C442.734 64.526 443.276 67.183 443.276 70.3014V72.1152H437.342V69.5377C437.342 66.5148 436.688 64.2078 435.38 62.6167C434.072 61.0257 432.046 60.2302 429.302 60.2302C426.718 60.2302 424.628 61.0575 423.033 62.7122C421.47 64.335 420.688 66.7693 420.688 70.0151C420.688 73.1971 421.581 75.5996 423.368 77.2225C425.187 78.8453 427.803 79.6568 431.217 79.6568C433.067 79.6568 434.822 79.4181 436.481 78.9408C438.14 78.4317 439.958 77.5884 441.937 76.411L441.075 82.0433C439.799 82.8388 438.299 83.4593 436.577 83.9048C434.854 84.3503 433.003 84.5731 431.025 84.5731C427.611 84.5731 424.692 84.0162 422.267 82.9025C419.843 81.7569 417.992 80.1182 416.716 77.9862C415.44 75.8223 414.802 73.213 414.802 70.1582ZM418.87 72.1152V67.3898H439.496V72.1152H418.87Z" fill="white"/>
<path d="M385.61 81.4715L387.285 76.7461C388.561 77.828 389.806 78.5917 391.018 79.0372C392.23 79.4827 393.666 79.7055 395.325 79.7055C398.42 79.7055 400.829 78.8304 402.551 77.0802C404.274 75.2983 405.136 72.9913 405.136 70.1592C405.136 67.1044 404.242 64.7179 402.456 62.9995C400.669 61.2494 398.308 60.3743 395.373 60.3743C394.32 60.3743 393.203 60.5016 392.023 60.7562C390.874 60.9789 389.662 61.3767 388.386 61.9495L392.358 56.2694C393.092 56.0149 393.858 55.8239 394.655 55.6967C395.485 55.5376 396.298 55.458 397.096 55.458C399.967 55.458 402.456 56.0467 404.561 57.2241C406.667 58.4014 408.294 60.072 409.443 62.2358C410.591 64.3678 411.166 66.8976 411.166 69.8251C411.166 72.5299 410.56 75.0119 409.347 77.2712C408.135 79.4986 406.364 81.2806 404.035 82.6171C401.706 83.9217 398.851 84.574 395.469 84.574C393.586 84.574 391.832 84.3195 390.204 83.8103C388.577 83.3012 387.046 82.5216 385.61 81.4715ZM382.643 93.7384V55.7444H388.386V93.7384H382.643Z" fill="white"/>
<path d="M347.082 70.0151C347.082 67.0557 347.672 64.4941 348.853 62.3303C350.065 60.1347 351.788 58.4482 354.021 57.2708C356.286 56.0616 358.998 55.457 362.157 55.457C365.284 55.457 367.964 56.0298 370.197 57.1754C372.462 58.3209 374.201 59.9915 375.413 62.1871C376.626 64.3509 377.232 66.9603 377.232 70.0151C377.232 72.9744 376.626 75.5519 375.413 77.7475C374.233 79.9113 372.51 81.5978 370.245 82.807C368.011 83.9844 365.315 84.5731 362.157 84.5731C359.03 84.5731 356.334 84.0003 354.069 82.8547C351.836 81.7092 350.113 80.0545 348.901 77.8907C347.688 75.6951 347.082 73.0698 347.082 70.0151ZM371.154 69.9673C371.154 66.9762 370.356 64.6373 368.761 62.9508C367.166 61.2325 364.964 60.3733 362.157 60.3733C359.19 60.3733 356.941 61.2007 355.409 62.8554C353.91 64.4782 353.16 66.8807 353.16 70.0628C353.16 73.0539 353.957 75.4087 355.553 77.127C357.148 78.8135 359.349 79.6568 362.157 79.6568C365.124 79.6568 367.357 78.8453 368.857 77.2225C370.388 75.5678 371.154 73.1494 371.154 69.9673Z" fill="white"/>
<path d="M335.956 84.2873V46.0068H341.699V84.2873H335.956Z" fill="white"/>
<path d="M302.076 70.1582C302.076 67.2307 302.683 64.6692 303.895 62.4735C305.139 60.2461 306.846 58.5277 309.016 57.3185C311.185 56.0775 313.69 55.457 316.529 55.457C319.56 55.457 322.112 56.0457 324.186 57.2231C326.26 58.4005 327.839 60.1029 328.924 62.3303C330.009 64.526 330.551 67.183 330.551 70.3014V72.1152H324.617V69.5377C324.617 66.5148 323.963 64.2078 322.655 62.6167C321.347 61.0257 319.321 60.2302 316.577 60.2302C313.993 60.2302 311.903 61.0575 310.308 62.7122C308.744 64.335 307.963 66.7693 307.963 70.0151C307.963 73.1971 308.856 75.5996 310.643 77.2225C312.461 78.8453 315.077 79.6568 318.491 79.6568C320.342 79.6568 322.096 79.4181 323.756 78.9408C325.415 78.4317 327.233 77.5884 329.211 76.411L328.35 82.0433C327.074 82.8388 325.574 83.4593 323.851 83.9048C322.128 84.3503 320.278 84.5731 318.3 84.5731C314.886 84.5731 311.967 84.0162 309.542 82.9025C307.117 81.7569 305.267 80.1182 303.991 77.9862C302.714 75.8223 302.076 73.213 302.076 70.1582ZM306.144 72.1152V67.3898H326.77V72.1152H306.144Z" fill="white"/>
<path d="M284.895 84.5738L269.868 55.7441H276.089L287.144 78.321L284.033 78.1301L295.136 55.7441H301.022L286.091 84.5738H284.895Z" fill="white"/>
<path d="M240.104 70.1582C240.104 67.2307 240.71 64.6692 241.923 62.4735C243.167 60.2461 244.874 58.5277 247.043 57.3185C249.213 56.0775 251.717 55.457 254.557 55.457C257.588 55.457 260.14 56.0457 262.214 57.2231C264.288 58.4005 265.867 60.1029 266.952 62.3303C268.036 64.526 268.579 67.183 268.579 70.3014V72.1152H262.645V69.5377C262.645 66.5148 261.99 64.2078 260.682 62.6167C259.374 61.0257 257.348 60.2302 254.605 60.2302C252.02 60.2302 249.931 61.0575 248.335 62.7122C246.772 64.335 245.99 66.7693 245.99 70.0151C245.99 73.1971 246.884 75.5996 248.67 77.2225C250.489 78.8453 253.105 79.6568 256.519 79.6568C258.369 79.6568 260.124 79.4181 261.783 78.9408C263.442 78.4317 265.261 77.5884 267.239 76.411L266.377 82.0433C265.101 82.8388 263.602 83.4593 261.879 83.9048C260.156 84.3503 258.306 84.5731 256.327 84.5731C252.914 84.5731 249.994 84.0162 247.57 82.9025C245.145 81.7569 243.294 80.1182 242.018 77.9862C240.742 75.8223 240.104 73.213 240.104 70.1582ZM244.172 72.1152V67.3898H264.798V72.1152H244.172Z" fill="white"/>
<path d="M203.337 84.2873V79.0368H215.014C219.927 79.0368 223.565 77.9549 225.926 75.7911C228.286 73.6273 229.467 70.0952 229.467 65.1948C229.467 60.4853 228.334 56.985 226.069 54.6939C223.836 52.4028 220.167 51.2573 215.062 51.2573H202.093V46.0068H215.588C220.055 46.0068 223.756 46.7546 226.691 48.2502C229.658 49.7458 231.876 51.9096 233.343 54.7416C234.843 57.5419 235.593 60.9467 235.593 64.9561C235.593 69.2201 234.827 72.8 233.295 75.6956C231.796 78.5595 229.531 80.7074 226.5 82.1394C223.501 83.5713 219.736 84.2873 215.206 84.2873H203.337ZM199.03 84.2873V46.0068H204.964V84.2873H199.03Z" fill="white"/>
</svg>
